<?xml version="1.0" standalone="no"?>
<!DOCTYPE svg PUBLIC "-//W3C//DTD SVG 20010904//EN"
 "http://www.w3.org/TR/2001/REC-SVG-20010904/DTD/svg10.dtd">
<svg version="1.0" xmlns="http://www.w3.org/2000/svg"
 width="676.000000pt" height="676.000000pt" viewBox="0 0 676.000000 676.000000"
 preserveAspectRatio="xMidYMid meet">
<metadata>
Created by potrace 1.14, written by Peter Selinger 2001-2017
</metadata>
<g transform="translate(0.000000,676.000000) scale(0.100000,-0.100000)"
fill="#000000" stroke="none">
<path d="M3318 5606 c-246 -94 -265 -424 -31 -537 67 -33 179 -33 243 -2 274
135 194 534 -109 549 -40 2 -80 -2 -103 -10z"/>
<path d="M1549 4985 c-65 -42 -72 -71 -73 -315 l-1 -215 -319 -2 c-193 -1
-321 -5 -325 -11 -3 -6 -4 -61 -1 -123 l5 -114 443 -1 442 -1 1 26 c0 14 0
137 1 274 0 181 3 247 11 247 7 0 30 -5 52 -10 56 -13 94 -20 140 -26 22 -3
54 -9 70 -14 17 -5 46 -11 65 -14 19 -3 58 -10 85 -16 28 -6 61 -12 75 -15 55
-8 194 -35 209 -40 9 -2 32 -7 51 -9 19 -3 65 -12 101 -20 36 -8 79 -17 95
-19 16 -3 63 -12 104 -21 41 -8 89 -17 105 -20 17 -3 39 -7 50 -9 92 -21 199
-37 206 -30 4 4 10 36 14 70 11 110 24 177 38 191 11 10 55 13 197 13 207 0
215 -2 224 -76 3 -22 8 -56 11 -75 3 -19 8 -55 10 -79 2 -24 7 -46 10 -49 3
-3 29 0 57 6 29 6 64 14 78 16 14 3 36 8 50 11 14 3 34 8 45 10 17 3 84 16
193 39 13 3 31 7 40 10 9 3 37 8 62 11 24 4 48 9 53 12 4 2 20 6 35 8 15 3 36
6 47 9 11 2 78 17 150 31 71 15 133 29 138 32 4 2 24 6 45 8 20 3 48 7 62 11
39 9 152 33 180 38 40 8 122 25 163 35 20 5 39 6 40 2 2 -3 3 -132 3 -287 l-1
-280 445 0 445 1 0 124 0 124 -318 -1 c-235 0 -319 3 -322 11 -2 7 -6 111 -7
232 -3 246 -5 252 -79 294 l-37 21 -1813 -1 -1814 0 -36 -24z"/>
<path d="M3255 4685 c-14 -10 -20 -47 -30 -165 -6 -74 -11 -129 -21 -215 -4
-33 -8 -71 -9 -85 -1 -14 -6 -59 -10 -100 -4 -41 -9 -91 -10 -111 -2 -20 -5
-58 -9 -85 -3 -27 -8 -78 -11 -114 -3 -36 -8 -81 -11 -100 -4 -38 -12 -118
-19 -215 -3 -33 -7 -73 -9 -90 -6 -46 -15 -133 -21 -205 -3 -36 -7 -76 -10
-90 -2 -14 -7 -59 -10 -100 -3 -41 -8 -91 -10 -110 -2 -19 -7 -62 -10 -95 -12
-134 -15 -166 -19 -197 -2 -18 -7 -73 -11 -123 -4 -49 -9 -93 -11 -96 -2 -4
-7 -54 -10 -113 l-7 -106 386 0 385 0 -3 53 c-2 28 -6 75 -9 102 -3 28 -8 84
-11 125 -3 41 -8 93 -11 115 -3 22 -7 63 -9 90 -5 69 -14 181 -20 235 -8 69
-15 139 -20 202 -5 71 -14 170 -20 223 -4 37 -8 84 -20 220 -5 62 -13 145 -20
210 -7 71 -15 160 -20 230 -3 33 -7 74 -9 90 -2 17 -6 68 -10 115 -4 47 -9
101 -11 120 -2 19 -7 69 -10 110 -17 188 -28 266 -40 279 -11 10 -256 7 -270
-4z"/>
<path d="M1146 4161 c-3 -4 -5 -88 -5 -186 l0 -179 -33 -27 c-32 -27 -177
-145 -268 -219 -24 -19 -48 -39 -54 -45 -6 -5 -27 -22 -48 -37 -20 -15 -42
-33 -50 -40 -7 -7 -47 -40 -88 -73 -41 -32 -80 -64 -86 -70 -6 -5 -30 -26 -52
-45 l-42 -35 0 -718 c0 -658 1 -722 17 -755 21 -44 85 -107 131 -129 38 -18
26 -18 763 -28 567 -7 530 -11 607 66 88 89 82 32 82 830 l-1 704 -146 110
c-80 61 -188 143 -239 183 -52 39 -98 72 -104 72 -5 0 -10 3 -10 8 0 13 -109
93 -132 98 -27 5 -150 -55 -145 -70 4 -12 48 -46 383 -298 l240 -181 3 -301
c2 -165 5 -429 7 -586 1 -157 1 -292 -2 -301 -4 -15 -9 -15 -49 -3 -25 7 -45
11 -45 8 0 -3 -8 0 -17 5 -10 5 -43 12 -73 16 -30 3 -62 8 -70 10 -65 17 -465
26 -620 14 -152 -12 -233 -23 -275 -36 -11 -3 -31 -7 -45 -9 -14 -2 -44 -8
-68 -15 -23 -6 -46 -9 -49 -5 -4 4 -7 285 -8 625 l0 619 31 21 c16 12 39 29
50 38 20 19 82 69 299 243 72 58 135 109 141 115 6 5 54 44 107 85 53 41 99
83 103 94 5 15 8 289 5 414 -1 21 -5 22 -70 22 -39 0 -72 -4 -75 -9z m434
-2325 c108 -8 235 -35 248 -53 16 -22 15 -28 -3 -46 -13 -13 -23 -13 -72 -2
-188 43 -589 52 -874 20 -66 -7 -184 -34 -224 -51 -45 -18 -92 -6 -81 22 3 9
6 19 6 24 0 8 63 36 102 44 13 3 43 10 67 16 59 14 90 18 196 26 49 3 92 7 94
10 5 5 455 -3 541 -10z"/>
<path d="M5439 4163 c0 -5 -1 -89 -2 -187 -1 -174 -2 -180 -24 -203 -13 -12
-27 -23 -30 -23 -3 0 -34 -24 -68 -52 -34 -29 -81 -69 -105 -88 -114 -92 -266
-215 -270 -220 -3 -3 -25 -21 -50 -40 -25 -19 -50 -39 -56 -45 -21 -18 -97
-80 -108 -87 -14 -9 -16 -1419 -2 -1466 12 -41 74 -113 122 -143 42 -26 24
-25 694 -34 642 -10 595 -11 642 21 52 36 97 89 119 138 16 38 17 90 16 739
l-2 698 -45 35 c-25 20 -119 93 -210 162 -91 70 -172 132 -180 139 -38 30
-139 106 -171 129 l-36 25 -64 -36 c-35 -20 -67 -40 -72 -44 -4 -4 43 -45 104
-91 62 -47 117 -89 123 -95 6 -5 37 -28 68 -49 32 -21 65 -46 75 -55 10 -9 71
-55 136 -104 66 -49 117 -95 118 -105 1 -9 3 -181 5 -382 2 -201 5 -463 7
-583 l2 -219 -35 7 c-19 3 -44 7 -56 9 -11 2 -25 5 -30 8 -33 20 -359 44 -552
42 -297 -4 -366 -11 -627 -71 -20 -4 -20 0 -20 622 0 616 0 627 20 637 11 7
25 17 30 23 6 6 33 29 60 50 64 51 85 68 99 80 6 6 31 26 56 45 25 19 47 37
50 40 4 4 98 80 173 140 11 8 24 20 31 25 6 6 43 35 81 64 39 30 85 68 103 85
l32 30 0 218 0 218 -75 0 c-41 0 -75 -3 -76 -7z m436 -2327 c39 -2 106 -12
150 -21 44 -9 86 -17 93 -18 12 0 15 -5 15 -32 0 -8 -1 -19 -2 -25 -1 -13 -55
-13 -101 -1 -142 38 -634 47 -875 16 -66 -8 -137 -25 -198 -47 -63 -22 -87
-15 -84 24 1 21 56 52 110 64 72 16 183 33 252 39 44 4 81 8 83 10 4 4 471 -3
557 -9z"/>
<path d="M2865 2141 c-8 -7 -5 -625 3 -637 5 -7 165 -10 532 -9 289 1 530 3
535 3 8 2 12 509 6 633 -1 14 -58 15 -536 15 -295 0 -538 -2 -540 -5z"/>
<path d="M7 1412 c-7 -12 -5 -282 2 -283 18 -4 6710 -7 6729 -3 22 4 22 7 22
149 l0 145 -3375 0 c-1856 -1 -3376 -4 -3378 -8z"/>
</g>
</svg>
